<svg width="102" height="35" viewBox="0 0 102 35" fill="none" xmlns="http://www.w3.org/2000/svg">
<path fill-rule="evenodd" clip-rule="evenodd" d="M28.1572 0C29.2814 0 30.1929 0.922835 30.1929 2.06121V8.57029H36.7236C36.6938 12.6505 36.7047 17.9222 36.7147 22.7125C36.7189 24.7452 36.723 26.6914 36.7236 28.423C38.7825 29.6357 40.6822 31.2675 42 33.8299L41.0341 33.0961C38.7889 31.3908 35.1337 29.923 31.8145 29.3936C29.8939 29.0874 26.1886 29.3825 24.227 29.998L23.7966 30.133L24.3857 30.4795C25.2189 30.9696 25.9985 31.7461 26.2306 32.3172C26.4505 32.8582 26.5103 32.8725 27.7472 32.6793C29.1857 32.4548 33.9731 32.563 33.4062 32.8071C33.2934 32.8557 32.6616 32.9333 32.002 32.9796C29.8292 33.1321 27.0674 33.6453 25.4811 34.1914C25.3102 34.2502 25.1737 34.0837 24.9178 33.5043C24.1169 31.6912 22.2598 30.1182 20.1391 29.4571L19.561 29.2768L20.2355 29.3457C20.9479 29.4183 22.368 29.6842 22.8384 29.8328C23.0786 29.9088 23.1026 29.8801 23.0083 29.629C22.4981 28.2695 21.0224 26.714 19.4437 25.8716C18.0327 25.1187 16.7953 24.8538 15.0185 24.9246C13.6444 24.9793 11.9914 25.3011 11.9914 25.514C11.9914 25.5666 12.089 25.9553 12.2081 26.3778C12.591 27.7344 12.7668 29.1762 12.6133 29.7019C12.527 29.9976 12.4652 30.0803 12.4561 29.9126C12.4271 29.3816 11.6795 27.8683 10.9765 26.918C8.92324 24.1423 5.66458 22.7038 1.43027 22.7038H0C0.00256729 18.8605 0.00595093 12.4136 0.00359726 8.57029H6.35003V2.06121C6.35003 0.922834 7.26145 0 8.38575 0H28.1572ZM9.13575 8.57029V2.8206H27.4072V8.57029H9.13575ZM17.9469 12.6674C17.6392 12.8372 17.3875 13.0303 17.3875 13.0967C17.3875 13.163 17.8291 13.5924 18.3689 14.0508C19.7437 15.2187 21.4592 16.9793 21.4051 17.1671C21.3801 17.2537 20.5901 17.7731 19.6497 18.3215L17.9397 19.3185L16.4655 19.166C15.0981 19.0245 14.9693 19.0295 14.6905 19.2344C14.2459 19.5611 14.3123 19.7087 15.1318 20.2161C15.7813 20.6184 15.8794 20.7376 15.9187 21.1725C15.9581 21.6098 16.0117 21.6738 16.3653 21.707C16.715 21.7398 16.7876 21.8231 16.9273 22.3519C17.0155 22.6859 17.0877 23.0677 17.0877 23.2005C17.0877 23.5202 17.4439 23.6167 17.9703 23.4396C18.3323 23.3179 18.464 23.1338 18.8295 22.2391L19.2612 21.1825L21.2098 20.3661C22.2815 19.917 23.1999 19.5473 23.2507 19.5445C23.4127 19.5355 24.2953 21.2518 24.9692 22.8863C25.3667 23.8504 25.707 24.4833 25.8403 24.5061C25.9603 24.5268 26.3361 24.4287 26.6753 24.2883L27.2918 24.0328L27.1905 23.1251C27.0923 22.245 27.1011 22.2099 27.4846 21.965C28.0005 21.6356 27.9833 21.4483 27.4036 21.08L26.9273 20.7773L27.4036 20.4517C28.0128 20.0356 28.0036 19.8501 27.3572 19.5101C26.8628 19.2501 26.8343 19.198 26.8325 18.5515L26.8307 17.8679L28.5704 17.0342C30.4223 16.1467 31.3121 15.471 31.8067 14.5766C31.965 14.2902 32.0528 13.9492 32.0017 13.8186C31.8673 13.4746 30.949 13.3047 30.0077 13.4496C28.9345 13.6149 28.3767 13.8248 26.7793 14.6651C26.0093 15.07 25.3039 15.4014 25.2118 15.4014C25.1197 15.4014 24.7447 15.2545 24.3784 15.0749C23.8314 14.8066 23.6966 14.6677 23.6236 14.2971C23.5232 13.787 23.2563 13.6502 22.6976 13.8226C22.1352 13.9963 22.0342 13.9715 22.0342 13.6599C22.0342 13.5054 21.9442 13.2791 21.8344 13.157C21.658 12.9611 21.5698 12.9523 21.0843 13.0824C20.5666 13.2212 20.4838 13.2045 19.6729 12.7975C19.1991 12.5598 18.7428 12.3639 18.6589 12.3621C18.575 12.3602 18.2546 12.4976 17.9469 12.6674Z" fill="#2D3134"/>
<path d="M8.63321 30.4902C12.1233 30.8062 14.5754 32.1608 15.6375 34.3596C16.0338 35.1801 15.946 35.1991 15.0267 34.4915C12.7227 32.7183 10.1239 31.6072 6.52032 30.8549C3.36597 30.1965 7.70444 30.4061 8.63321 30.4902Z" fill="#2D3134"/>
<path d="M55.0312 10.6016C56.4115 10.6016 57.6224 10.8815 58.6641 11.4414C59.7057 12.0013 60.513 12.7826 61.0859 13.7852C61.6719 14.7878 61.9648 15.9661 61.9648 17.3203C61.9648 18.6094 61.6914 19.7812 61.1445 20.8359C60.5977 21.8776 59.8164 22.7044 58.8008 23.3164C57.7852 23.9284 56.5742 24.2344 55.168 24.2344C54.2695 24.2344 53.3711 24.1888 52.4727 24.0977C51.5872 24.0065 50.7474 23.8828 49.9531 23.7266V11.1094C50.7604 10.9792 51.5872 10.862 52.4336 10.7578C53.2799 10.6536 54.1458 10.6016 55.0312 10.6016ZM55.0898 13.1406C54.6992 13.1406 54.2891 13.1602 53.8594 13.1992C53.4297 13.2383 53.0326 13.2904 52.668 13.3555V21.4805C53.0586 21.5586 53.4622 21.6172 53.8789 21.6562C54.3086 21.6823 54.7122 21.6953 55.0898 21.6953C55.9492 21.6953 56.6849 21.513 57.2969 21.1484C57.9089 20.7708 58.3776 20.2565 58.7031 19.6055C59.0286 18.9544 59.1914 18.2253 59.1914 17.418C59.1914 16.5846 59.0286 15.849 58.7031 15.2109C58.3776 14.5729 57.9089 14.0716 57.2969 13.707C56.6849 13.3294 55.9492 13.1406 55.0898 13.1406ZM68.2734 13.8828C68.8073 13.8828 69.3477 14.0065 69.8945 14.2539C70.4414 14.5013 70.8971 14.8333 71.2617 15.25V14.1367H73.7422V24H71.2617V22.3398C70.9753 22.8737 70.5586 23.3359 70.0117 23.7266C69.4648 24.1042 68.8268 24.293 68.0977 24.293C67.3034 24.293 66.5677 24.0911 65.8906 23.6875C65.2266 23.2839 64.6927 22.6979 64.2891 21.9297C63.8854 21.1615 63.6836 20.2305 63.6836 19.1367C63.6836 18.043 63.8854 17.1055 64.2891 16.3242C64.7057 15.543 65.2591 14.944 65.9492 14.5273C66.6523 14.0977 67.4271 13.8828 68.2734 13.8828ZM68.7812 16.3047C68.2604 16.3047 67.8112 16.4414 67.4336 16.7148C67.069 16.9753 66.7826 17.3203 66.5742 17.75C66.3659 18.1797 66.2617 18.6419 66.2617 19.1367C66.2617 19.8789 66.4831 20.5104 66.9258 21.0312C67.3815 21.5521 67.9805 21.8125 68.7227 21.8125C69.1654 21.8125 69.5755 21.6953 69.9531 21.4609C70.3438 21.2266 70.6562 20.901 70.8906 20.4844C71.138 20.0547 71.2617 19.5404 71.2617 18.9414V17.5352C70.9102 17.1576 70.526 16.8581 70.1094 16.6367C69.7057 16.4154 69.263 16.3047 68.7812 16.3047ZM79.2695 9.9375V24H76.7891V9.9375H79.2695ZM85.8711 11.2656V14.1367H88.6055V16.207H85.8711V20.4648C85.8711 20.9076 85.9688 21.2591 86.1641 21.5195C86.3724 21.7669 86.6784 21.8906 87.082 21.8906C87.4336 21.8906 87.7331 21.8516 87.9805 21.7734C88.2409 21.6953 88.4818 21.5846 88.7031 21.4414V23.4141C88.4557 23.6615 88.1432 23.8698 87.7656 24.0391C87.401 24.2083 86.9388 24.293 86.3789 24.293C85.4935 24.293 84.7708 24.013 84.2109 23.4531C83.6641 22.8802 83.3906 22.099 83.3906 21.1094V16.207H81.6133V14.9375C82.2383 14.7161 82.8112 14.2995 83.332 13.6875C83.8659 13.0755 84.2891 12.2682 84.6016 11.2656H85.8711ZM92.8047 14.1367L95.6172 20.4258L98.3516 14.1367H101.184L94.0156 28.6875H91.2031L94.1719 23.2773L89.9141 14.1367H92.8047Z" fill="#2D3134"/>
</svg>
